#!OML:ASF E:\I on waltz\AllaLogoMonkeySwing\Project 1\Capture day 1\Session 1\Subject1.ASF
:FULLY-SPECIFIED
:DEGREES
1636
root -0.83346 17.4948 -6.25734 -3.15203 2.53731 2.74852
lowerback 10.0282 1.52526 -6.63875
upperback 2.21095 1.30846 -0.705926
thorax -3.44425 0.704626 2.82969
lowerneck -5.26961 7.74175 3.03714
upperneck 36.4683 13.6084 -6.80706
head 14.0738 5.6077 -1.43037
rclavicle 2.48481e-017 2.38542e-015
rhumerus -34.1832 -20.8988 -79.1383
rradius 31.7829
rwrist 2.15952
rhand -15.3368 -397.491
rfingers 7.12502
rthumb 10.8399 -67.1913
lclavicle 2.48481e-017 2.38542e-015
lhumerus -41.8634 18.9685 63.2931
lradius 50.7064
lwrist 5.8962
lhand -11.5737 -13.7064
lfingers 7.12502
lthumb 14.4678 15.7693
rfemur -6.03148 -8.8638 11.6612
rtibia 62.4487
rfoot -10.1667 -0.871613
rtoes 5.05065
lfemur -10.663 -0.175013 -25.2791
ltibia 27.5872
lfoot -15.3173 -3.466
ltoes -28.0862
1637
root -0.847531 17.4986 -6.55654 -3.02545 2.44907 1.8729
lowerback 9.75721 1.73703 -5.60463
upperback 2.13491 1.71932 -0.541163
thorax -3.39119 0.900193 2.37181
lowerneck -5.24268 7.67599 2.87946
upperneck 36.4192 13.5177 -6.71485
head 14.0152 5.5672 -1.38076
rclavicle 2.49972e-014 -1.66979e-014
rhumerus -33.5788 -18.6694 -80.3791
rradius 34.0364
rwrist 2.10742
rhand -14.291 -398.248
rfingers 7.12502
rthumb 11.8485 -67.8933
lclavicle 2.49972e-014 -1.66979e-014
lhumerus -42.7937 20.4078 62.1756
lradius 49.8143
lwrist 5.71335
lhand -11.764 -13.2318
lfingers 7.12502
lthumb 14.2844 16.2569
rfemur -2.80206 -7.67339 13.1024
rtibia 59.6641
rfoot -8.94006 0.325251
rtoes 3.54034
lfemur -12.2089 -0.632322 -24.2841
ltibia 28.0144
lfoot -14.4999 -3.33126
ltoes -28.489
1638
root -0.861908 17.4963 -6.86149 -2.81836 2.18402 0.972533
lowerback 9.44599 2.01291 -4.49133
upperback 2.05606 2.21913 -0.38592
thorax -3.30855 1.13884 1.85181
lowerneck -5.31419 7.60546 2.69013
upperneck 36.4199 13.432 -6.61708
head 13.9993 5.51988 -1.31813
rclavicle -4.94477e-015 2.18663e-015
rhumerus -33.1156 -16.7472 -81.2977
rradius 36.3957
rwrist 2.0951
rhand -12.4476 -399.459
rfingers 7.12502
rthumb 13.6257 -68.993
lclavicle -4.94477e-015 2.18663e-015
lhumerus -43.7388 21.9937 61.0254
lradius 48.9411
lwrist 5.66528
lhand -12.0102 -12.7677
lfingers 7.12502
lthumb 14.0472 16.7376
rfemur 0.252662 -6.22125 14.7858
rtibia 56.3535
rfoot -7.9602 1.72346
rtoes 3.11573
lfemur -13.9236 -0.987208 -23.2207
ltibia 28.5097
lfoot -13.7118 -3.16478
ltoes -27.8779
1639
root -0.880459 17.4865 -7.17576 -2.45212 1.83591 0.119086
lowerback 9.05108 2.26827 -3.51203
upperback 1.96278 2.67599 -0.207363
thorax -3.18218 1.35751 1.44326
lowerneck -5.40677 7.58517 2.39938
upperneck 36.3637 13.4355 -6.53647
head 13.9622 5.49615 -1.2317
rclavicle -2.9271e-014 1.27222e-014
rhumerus -32.5269 -14.7641 -82.0707
rradius 38.5729
rwrist 1.64708
rhand -11.3704 -400.096
rfingers 7.12502
rthumb 14.6636 -69.5572
lclavicle -2.9271e-014 1.27222e-014
lhumerus -44.8203 23.8177 59.788
lradius 48.095
lwrist 5.91165
lhand -12.3699 -12.373
lfingers 7.12502
lthumb 13.7005 17.156
rfemur 3.00939 -4.65037 16.6225
rtibia 52.66
rfoot -7.07417 2.85643
rtoes 3.93453
lfemur -15.8737 -1.2704 -22.1521
ltibia 29.037
lfoot -12.9704 -2.90424
ltoes -26.4534
1640
root -0.90301 17.4639 -7.50056 -1.91486 1.45566 -0.596954
lowerback 8.62896 2.4593 -2.76962
upperback 1.82567 3.01813 -0.027948
thorax -3.08051 1.52248 1.18643
lowerneck -5.62327 7.66046 2.02062
upperneck 36.3542 13.6181 -6.49344
head 13.984 5.52611 -1.11391
rclavicle 8.82107e-015 -7.55382e-015
rhumerus -31.7124 -12.7174 -82.6869
rradius 40.3705
rwrist 0.997195
rhand -11.0976 -400.161
rfingers 7.12502
rthumb 14.9265 -69.6032
lclavicle 8.82107e-015 -7.55382e-015
lhumerus -46.1872 25.7453 58.4396
lradius 47.355
lwrist 6.37527
lhand -12.8739 -12.0741
lfingers 7.12502
lthumb 13.2147 17.4871
rfemur 5.40589 -3.15522 18.3848
rtibia 48.6849
rfoot -5.98893 3.47754
rtoes 3.90438
lfemur -17.9595 -1.63016 -21.1424
ltibia 29.5347
lfoot -12.3045 -2.51199
ltoes -26.361
1641
root -0.926704 17.4335 -7.83656 -1.28866 1.06994 -1.15028
lowerback 8.28038 2.6571 -2.11702
upperback 1.6472 3.34896 0.0349552
thorax -3.05302 1.68301 0.859978
lowerneck -5.76422 7.75953 1.85557
upperneck 36.245 13.8253 -6.57267
head 13.9737 5.58598 -1.08011
rclavicle -3.8266e-015 8.94531e-015
rhumerus -30.913 -11.13 -83.1089
rradius 42.0201
rwrist 0.544631
rhand -11.2796 -400.198
rfingers 7.12502
rthumb 14.7511 -69.6528
lclavicle -3.8266e-015 8.94531e-015
lhumerus -47.6831 27.3488 57.0376
lradius 46.7499
lwrist 6.91966
lhand -13.4043 -11.8305
lfingers 7.12502
lthumb 12.7034 17.7631
rfemur 7.52087 -1.82597 19.9229
rtibia 44.4484
rfoot -4.44456 3.53161
rtoes 3.86611
lfemur -20.0765 -1.88436 -20.2513
ltibia 29.967
lfoot -11.7821 -2.18609
ltoes -28.1313
1642
root -0.947502 17.4038 -8.18712 -0.576485 0.609128 -1.75337
lowerback 8.07258 2.943 -1.20101
upperback 1.37011 3.80731 -0.0535566
thorax -3.17399 1.90371 0.20982
lowerneck -5.72397 7.75951 1.97139
upperneck 36.0266 13.8115 -6.65191
head 13.8796 5.59821 -1.13391
rclavicle -1.04362e-014 -6.75868e-015
rhumerus -30.5757 -10.2425 -83.388
rradius 44.0839
rwrist 0.379567
rhand -11.201 -400.423
rfingers 7.12502
rthumb 14.8269 -69.8727
lclavicle -1.04362e-014 -6.75868e-015
lhumerus -49.0681 28.3325 55.7289
lradius 46.2022
lwrist 7.75787
lhand -14.0729 -11.4932
lfingers 7.12502
lthumb 12.0588 18.1394
rfemur 9.33626 -0.635532 21.4032
rtibia 39.9816
rfoot -2.79939 3.319
rtoes 3.97727
lfemur -22.3033 -1.86912 -19.312
ltibia 30.3124
lfoot -11.3704 -1.87088
ltoes -29.7834
